#!OML:ASF F:\VICON\USERDATA\INSTALL\rory3\rory3.ASF
:FULLY-SPECIFIED
:DEGREES
2323
root -1.49196 16.9478 -4.20469 44.8936 2.05962 -2.03139
lowerback 39.5477 0.179529 0.410549
upperback 8.84388 0.786749 3.28681
thorax -9.42948 0.293677 2.98607
lowerneck -34.0226 -3.91124 -10.4119
upperneck 13.1724 -1.81481 5.82775
head 9.68225 -0.665679 3.44151
rclavicle -8.24956e-015 9.77772e-015
rhumerus 30.0851 8.10416 -47.0981
rradius 43.3553
rwrist 34.2355
rhand -26.1856 7.67959
rfingers 7.12502
rthumb 0.366459 -22.2998
lclavicle -8.24956e-015 9.77772e-015
lhumerus 28.9594 -14.5607 48.2035
lradius 39.4946
lwrist -17.122
lhand -17.2553 15.375
lfingers 7.12502
lthumb 8.98897 45.1635
rfemur -72.3708 -5.81675 11.4764
rtibia 34.158
rfoot -6.88945 -12.5415
rtoes 4.62557
lfemur -74.4982 7.53417 -12.884
ltibia 37.0144
lfoot -2.61474 4.62072
ltoes -24.2231
2324
root -1.48834 16.9541 -4.2057 44.2258 2.08692 -2.00608
lowerback 38.5852 0.0528345 0.636754
upperback 8.60857 0.691306 3.13482
thorax -9.36204 0.256689 2.74183
lowerneck -33.3519 -3.79343 -10.1375
upperneck 12.8389 -1.8698 5.91191
head 9.4664 -0.667316 3.41224
rclavicle -9.0447e-015 -3.66758e-014
rhumerus 28.3781 8.64419 -47.8568
rradius 43.8408
rwrist 34.4675
rhand -26.2504 7.65594
rfingers 7.12502
rthumb 0.303861 -22.3236
lclavicle -9.0447e-015 -3.66758e-014
lhumerus 27.4598 -15.5292 48.5428
lradius 39.99
lwrist -16.736
lhand -17.2672 15.5803
lfingers 7.12502
lthumb 8.97755 45.3693
rfemur -71.7816 -5.82838 11.4985
rtibia 34.4478
rfoot -7.01519 -12.3568
rtoes 4.54881
lfemur -73.9214 7.48041 -12.9141
ltibia 37.3068
lfoot -2.78756 4.51285
ltoes -24.4754
2325
root -1.48374 16.9548 -4.20408 43.6305 2.11608 -2.13326
lowerback 37.3955 -0.041638 0.889308
upperback 8.43544 0.638626 3.04439
thorax -9.14035 0.235983 2.53057
lowerneck -32.831 -3.66412 -9.87361
upperneck 12.5332 -1.87727 5.97474
head 9.27894 -0.64993 3.38592
rclavicle 1.09332e-014 -2.42455e-014
rhumerus 26.7252 9.09433 -48.5955
rradius 44.5282
rwrist 34.5695
rhand -26.014 7.66392
rfingers 7.12502
rthumb 0.532231 -22.3152
lclavicle 1.09332e-014 -2.42455e-014
lhumerus 26.0387 -16.2366 48.9653
lradius 40.445
lwrist -16.0423
lhand -16.3441 15.295
lfingers 7.12502
lthumb 9.86815 45.0438
rfemur -71.3035 -5.74392 11.6679
rtibia 34.7135
rfoot -6.97797 -12.2592
rtoes 3.85495
lfemur -73.4548 7.57483 -12.8671
ltibia 37.6585
lfoot -3.01354 4.37136
ltoes -24.5869
2326
root -1.4812 16.9594 -4.20227 42.8114 2.18105 -2.26061
lowerback 36.524 -0.0811499 1.06701
upperback 8.28528 0.64495 3.09765
thorax -9.00003 0.239953 2.4895
lowerneck -32.5974 -3.63899 -9.82278
upperneck 12.3797 -1.90002 6.03408
head 9.19189 -0.650961 3.39256
rclavicle -2.37299e-015 1.2174e-014
rhumerus 25.0824 9.46476 -49.1592
rradius 45.3924
rwrist 34.5924
rhand -25.5772 7.68619
rfingers 7.12502
rthumb 0.954083 -22.2914
lclavicle -2.37299e-015 1.2174e-014
lhumerus 24.5207 -16.7195 49.7743
lradius 40.9753
lwrist -15.7774
lhand -15.8031 15.1095
lfingers 7.12502
lthumb 10.3901 44.8328
rfemur -70.5772 -5.67853 11.9097
rtibia 34.9982
rfoot -6.96278 -12.0799
rtoes 3.23004
lfemur -72.7424 7.67917 -12.8144
ltibia 37.9777
lfoot -3.25259 4.15807
ltoes -24.5109
2327
root -1.47293 16.952 -4.19125 42.4518 1.97454 -2.45671
lowerback 34.7094 -0.0135255 1.07993
upperback 8.291 0.691146 3.15161
thorax -8.4633 0.265673 2.50141
lowerneck -32.4428 -3.69338 -9.9915
upperneck 12.1825 -1.94324 6.18421
head 9.10599 -0.660275 3.46305
rclavicle -7.95139e-016 -3.20851e-014
rhumerus 23.6563 9.90903 -49.5513
rradius 45.9803
rwrist 34.6803
rhand -25.6565 7.63906
rfingers 7.12502
rthumb 0.87751 -22.3389
lclavicle -7.95139e-016 -3.20851e-014
lhumerus 22.8538 -17.0709 50.7054
lradius 41.6916
lwrist -15.8108
lhand -15.7112 15.2337
lfingers 7.12502
lthumb 10.4787 44.9525
rfemur -70.4116 -5.58049 12.1693
rtibia 35.2894
rfoot -6.88733 -11.7702
rtoes 3.11036
lfemur -72.4372 7.96794 -12.854
ltibia 38.2792
lfoot -3.48764 4.13306
ltoes -24.3544
2328
root -1.46675 16.9558 -4.17511 41.9447 1.87614 -2.15142
lowerback 33.2148 -0.0894603 0.922761
upperback 8.24368 0.514215 3.15353
thorax -7.95102 0.191188 2.64688
lowerneck -32.529 -3.80751 -10.2695
upperneck 12.0321 -2.0282 6.49935
head 9.07995 -0.671642 3.60584
rclavicle -4.91992e-015 -4.77083e-015
rhumerus 22.2976 10.4212 -49.9144
rradius 46.4136
rwrist 34.9129
rhand -26.0869 7.60133
rfingers 7.12502
rthumb 0.461829 -22.3779
lclavicle -4.91992e-015 -4.77083e-015
lhumerus 21.3755 -17.3566 51.5308
lradius 42.1194
lwrist -15.9444
lhand -15.6118 15.1741
lfingers 7.12502
lthumb 10.5747 44.8881
rfemur -69.9534 -5.79044 11.9177
rtibia 35.5583
rfoot -6.88605 -11.6015
rtoes 2.69813
lfemur -71.9238 7.82166 -13.2827
ltibia 38.4684
lfoot -3.69529 4.04788
ltoes -24.4424
2329
root -1.46289 16.9631 -4.15627 41.2823 1.72097 -1.84623
lowerback 31.7375 -0.0682081 0.636215
upperback 8.4774 0.426603 3.05126
thorax -7.76209 0.178523 2.922
lowerneck -32.4848 -3.85428 -10.3329
upperneck 11.8992 -2.08613 6.60179
head 9.03352 -0.687917 3.64137
rclavicle 2.5842e-015 -1.03617e-014
rhumerus 21.0375 11.0084 -50.0263
rradius 46.6926
rwrist 34.7049
rhand -26.4074 7.53693
rfingers 7.12502
rthumb 0.152278 -22.4428
lclavicle 2.5842e-015 -1.03617e-014
lhumerus 19.9482 -17.8751 52.2985
lradius 42.3786
lwrist -16.0063
lhand -15.6443 14.9437
lfingers 7.12502
lthumb 10.5433 44.6593
rfemur -69.2753 -5.84558 11.5144
rtibia 35.7714
rfoot -6.95585 -11.5117
rtoes 2.20932
lfemur -71.179 7.5969 -13.5696
ltibia 38.6094
lfoot -3.92028 4.17274
ltoes -24.2346
2330
root -1.46027 16.9942 -4.1313 39.9138 1.64575 -1.81983
lowerback 31.4204 -0.00652786 0.626215
upperback 8.36355 0.494363 3.0373
thorax -7.74816 0.211538 2.88376
lowerneck -32.1602 -3.83374 -10.1478
upperneck 11.5934 -2.15115 6.52933
head 8.87994 -0.718337 3.56914
rclavicle 1.88845e-015 -3.97569e-016
rhumerus 19.0982 11.1844 -50.7076
rradius 47.4124
rwrist 34.8485
rhand -26.9462 7.47416
rfingers 7.12502
rthumb -0.368118 -22.5053
lclavicle 1.88845e-015 -3.97569e-016
lhumerus 18.5765 -18.4906 52.9785
lradius 42.7707
lwrist -15.8957
lhand -15.9776 14.5661
lfingers 7.12502
lthumb 10.2218 44.2978
rfemur -67.7325 -5.64903 11.3717
rtibia 35.9184
rfoot -7.25777 -11.3012
rtoes 2.56799
lfemur -69.5729 7.45975 -13.469
ltibia 38.6857
lfoot -4.24942 4.24183
ltoes -23.7909
2331
root -1.45659 17.0253 -4.11138 38.5174 1.78725 -1.93498
lowerback 31.3305 -0.019108 0.864462
upperback 8.15948 0.561626 3.1044
thorax -7.94118 0.243361 2.79793
lowerneck -32.2206 -3.89593 -10.0482
upperneck 11.6378 -2.26962 6.51535
head 8.91372 -0.770474 3.52985
rclavicle 2.18663e-015 2.17669e-014
rhumerus 17.6286 11.5472 -50.9645
rradius 47.7966
rwrist 34.6032
rhand -27.3802 7.60161
rfingers 7.12502
rthumb -0.787258 -22.3767
lclavicle 2.18663e-015 2.17669e-014
lhumerus 17.1227 -19.032 53.7785
lradius 43.122
lwrist -15.8435
lhand -16.3326 14.1958
lfingers 7.12502
lthumb 9.87924 43.944
rfemur -66.0941 -5.50534 11.4901
rtibia 35.9764
rfoot -7.57172 -11.1053
rtoes 3.53764
lfemur -68.0384 7.38036 -13.2579
ltibia 38.7994
lfoot -4.5032 4.12206
ltoes -23.819
2332
root -1.45306 17.05 -4.08898 37.2688 1.81958 -2.01849
lowerback 30.8153 -0.0155784 0.976548
upperback 8.07293 0.59222 3.13927
thorax -7.79877 0.257227 2.75516
lowerneck -31.9611 -3.9 -9.95306
upperneck 11.3802 -2.34754 6.57057
head 8.79137 -0.796102 3.51757
rclavicle -1.03368e-014 -3.598e-014
rhumerus 16.4186 11.8115 -51.2363
rradius 48.1528
rwrist 34.395
rhand -27.6871 7.67838
rfingers 7.12502
rthumb -1.08369 -22.2986
lclavicle -1.03368e-014 -3.598e-014
lhumerus 15.8285 -19.4989 54.3967
lradius 43.4598
lwrist -15.712
lhand -16.3965 14.1981
lfingers 7.12502
lthumb 9.81763 43.9493
rfemur -64.6316 -5.36721 11.5688
rtibia 35.9716
rfoot -7.66644 -10.9812
rtoes 3.8672
lfemur -66.6594 7.3617 -13.1713
ltibia 38.9207
lfoot -4.66227 4.02882
ltoes -24.227
2333
root -1.44985 17.068 -4.05938 36.0532 1.67682 -2.18679
lowerback 30.2407 0.0628868 0.961501
upperback 7.95618 0.677661 3.18987
thorax -7.66453 0.297675 2.78444
lowerneck -31.6518 -3.90431 -10.0087
upperneck 11.1282 -2.39824 6.78652
head 8.66662 -0.79814 3.59146
rclavicle -1.07344e-014 4.67144e-015
rhumerus 14.8753 11.9327 -51.8599
rradius 48.7156
rwrist 34.6816
rhand -28.163 7.67526
rfingers 7.12502
rthumb -1.54337 -22.2989
lclavicle -1.07344e-014 4.67144e-015
lhumerus 14.4538 -19.9581 55.0547
lradius 43.7253
lwrist -15.5439
lhand -16.5002 14.2266
lfingers 7.12502
lthumb 9.71758 43.9825
rfemur -63.2925 -5.06175 11.6446
rtibia 36.0377
rfoot -7.75868 -10.8468
rtoes 3.81452
lfemur -65.2178 7.40612 -12.9689
ltibia 39.0325
lfoot -4.88255 4.13252
ltoes -24.471
2334
root -1.44422 17.0925 -4.02294 34.9099 1.59606 -2.07585
lowerback 29.4516 0.0621948 0.913601
upperback 7.82521 0.644364 3.16108
thorax -7.43602 0.284208 2.78327
lowerneck -31.4157 -3.87519 -9.92516
upperneck 11.0301 -2.4501 6.96015
head 8.60513 -0.80036 3.63018
rclavicle -9.54166e-015 2.28602e-015
rhumerus 12.8139 11.8882 -52.8197
rradius 49.6096
rwrist 35.3638
rhand -28.6906 7.66007
rfingers 7.12502
rthumb -2.05287 -22.3098
lclavicle -9.54166e-015 2.28602e-015
lhumerus 13.0994 -20.5277 55.6322
lradius 43.8793
lwrist -15.5947
lhand -16.9343 13.9333
lfingers 7.12502
lthumb 9.29878 43.7082
rfemur -61.9761 -5.13808 11.6252
rtibia 36.1657
rfoot -7.82446 -10.516
rtoes 3.2647
lfemur -63.8232 7.31017 -13.0883
ltibia 39.1397
lfoot -5.21681 4.11643
ltoes -24.4048
2335
root -1.4411 17.1112 -3.99333 33.7949 1.53036 -1.47401
lowerback 28.9441 -0.0159296 0.573937
upperback 7.59183 0.435667 3.01321
thorax -7.44808 0.194005 2.88212
lowerneck -31.0669 -3.72959 -9.61675
upperneck 10.8129 -2.39137 6.86235
head 8.46769 -0.772755 3.55142
rclavicle -1.15295e-014 1.25234e-014
rhumerus 10.9438 11.9759 -53.6082
rradius 50.4046
rwrist 35.7389
rhand -29.0579 7.58733
rfingers 7.12502
rthumb -2.40763 -22.3788
lclavicle -1.15295e-014 1.25234e-014
lhumerus 11.6052 -20.9794 56.1918
lradius 44.1991
lwrist -15.8712
lhand -17.486 13.6349
lfingers 7.12502
lthumb 8.76634 43.4329
rfemur -60.6674 -5.51272 11.128
rtibia 36.2993
rfoot -7.97861 -10.2105
rtoes 3.06715
lfemur -62.4999 6.96024 -13.6914
ltibia 39.2476
lfoot -5.57819 4.07164
ltoes -24.288
2336
root -1.44201 17.1149 -3.96975 32.6467 1.40919 -1.41395
lowerback 28.7848 0.00916224 0.402206
upperback 7.31946 0.42553 3.02791
thorax -7.67905 0.195073 3.00305
lowerneck -30.5592 -3.64912 -9.53102
upperneck 10.2709 -2.34048 6.80761
head 8.19818 -0.753659 3.51741
rclavicle -2.98177e-015 -1.2921e-014
rhumerus 9.40931 12.2034 -54.0928
rradius 51.1746
rwrist 35.8646
rhand -29.3618 7.37169
rfingers 7.12502
rthumb -2.70111 -22.591
lclavicle -2.98177e-015 -1.2921e-014
lhumerus 9.95872 -21.1332 56.9036
lradius 44.8755
lwrist -15.6369
lhand -17.9984 13.5038
lfingers 7.12502
lthumb 8.27186 43.3219
rfemur -59.4169 -5.17025 10.863
rtibia 36.4131
rfoot -8.33641 -10.2455
rtoes 3.14475
lfemur -61.1731 6.88708 -13.6425
ltibia 39.3436
lfoot -5.80802 4.16416
ltoes -24.2065
2337
root -1.43423 17.1329 -3.92944 31.5103 1.11938 -1.58998
lowerback 28.2407 0.104394 0.33762
upperback 7.16793 0.520101 3.04405
thorax -7.59079 0.240507 3.02078
lowerneck -30.1157 -3.6565 -9.53538
upperneck 9.64872 -2.3895 6.90379
head 7.92465 -0.767392 3.53553
rclavicle 6.36111e-015 -3.1408e-014
rhumerus 8.01348 12.3803 -54.5088
rradius 51.8993
rwrist 35.9847
rhand -29.9489 7.21049
rfingers 7.12502
rthumb -3.26815 -22.7442
lclavicle 6.36111e-015 -3.1408e-014
lhumerus 8.38207 -21.1712 57.6802
lradius 45.5248
lwrist -15.1995
lhand -18.2426 13.5327
lfingers 7.12502
lthumb 8.0362 43.3599
rfemur -58.1712 -4.81775 10.9406
rtibia 36.5147
rfoot -8.37986 -10.0171
rtoes 2.36908
lfemur -59.7159 7.04969 -13.4875
ltibia 39.4252
lfoot -6.15336 4.298
ltoes -24.2516
